*****************************************************************************
         The Last Temptation of Christ DVDRip x264 AC-3 5.1 MULTI SUB 
*****************************************************************************

                    http://www.imdb.com/title/tt0095497/

-----------------------------------------------------------------------------
                              Movie Information
-----------------------------------------------------------------------------
Movie Title..........: The Last Temptation of Christ 
Genre................: Drama
Cast.................: Willem Dafoe,Harvey Keitel,Verna Bloom,Barbara Hershey
IMDB Rating..........: 7,5
Language.............: English
Writer...............: Nikos Kazantzakis (novel)
Directed.............: Martin Scorsese

xxxxxxxxxxxxxxxxxxxxxxxxxxxxxxxxxxxxxxxxxxxxxxxxxxxxxxxxxxxxxxxxxxxxxxxxxxxx
           
Language: English

Optional Subtitles [Muxed in the Container]:English,French,German,Spanish, Greek,Turkish,Dutch,Portuguese,Polish,Swedish,Bulgarian,Serbian,Slovak,Finnish,
Czech,Hungarian

*I tried to find as many subs as possible just to save you some time and check them by name words,so i am not responsible if some subtitles are wrong synced or bad.I think that they are all OK but unfortunately i don't speak all this languages to be 1000% sure.If you watch it and the language is well synchronized plz write a comment to inform others.

xxxxxxxxxxxxxxxxxxxxxxxxxxxxxxxxxxxxxxxxxxxxxxxxxxxxxxxxxxxxxxxxxxxxxxxxxxxx

-----------------------------------------------------------------------------
                            General Information
-----------------------------------------------------------------------------

Container............: MKV [Matroska]
File size............: 2.43 GiB
Duration.............: 2h 40mn 
Overall Bit rate.....: 2 172 Kbps

-----------------------------------------------------------------------------
                            Video Information
-----------------------------------------------------------------------------

Format/Info                      : Advanced Video Codec
Format profile                   : High@L3.0
Format settings, CABAC           : Yes
Format settings, ReFrames        : 5 frames
Muxing mode                      : Container profile=Unknown@3.0
Codec ID                         : V_MPEG4/ISO/AVC
Duration                         : 2h 40mn
Bit rate                         : 1 745 Kbps
Width                            : 720 pixels
Height                           : 384 pixels
Display aspect ratio             : 1.875
Frame rate                       : 25.000 fps
Resolution                       : 8 bits
Colorimetry                      : 4:2:0
Scan type                        : Progressive
Bits/(Pixel*Frame)               : 0.252
Stream size                      : 1.95 GiB (80%)
Writing library                  : x264 core 80 r1376M 3feaec2
Encoding settings                : cabac=1 / ref=5 / deblock=1:-1:-1 / analyse=0x3:0x113 / me=umh / subme=8 / psy=1 / psy_rd=1.0:0.2 / mixed_ref=1 / me_range=16 / chroma_me=1 / trellis=1 / 8x8dct=1 / cqm=0 / deadzone=21,11 / fast_pskip=1 / chroma_qp_offset=-3 / threads=6 / sliced_threads=0 / nr=0 / decimate=1 / mbaff=0 / constrained_intra=0 / bframes=3 / b_pyramid=0 / b_adapt=2 / b_bias=0 / direct=3 / wpredb=1 / wpredp=2 / keyint=250 / keyint_min=25 / scenecut=40 / rc_lookahead=50 / rc=crf / mbtree=1 / crf=18.5 / qcomp=0.60 / qpmin=10 / qpmax=51 / qpstep=4 / ip_ratio=1.40 / aq=1:1.00


-----------------------------------------------------------------------------
                            Audio Information
-----------------------------------------------------------------------------

Format                           : AVC
Format                           : AC-3
Format/Info                      : Audio Coding 3
Codec ID                         : A_AC3
Duration                         : 2h 40mn
Bit rate mode                    : Constant
Bit rate                         : 384 Kbps
Channel(s)                       : 6 channels
Channel positions                : Front: L C R, Surround: L R, LFE
Sampling rate                    : 48.0 KHz
Stream size                      : 440 MiB (18%)
Language                         : English

-----------------------------------------------------------------------------
                              Screenshots
-----------------------------------------------------------------------------
 
http://img693.imageshack.us/img693/3331/13639823.jpg  
http://img686.imageshack.us/img686/812/69823704.jpg  
http://img119.imageshack.us/img119/2596/35348248.jpg  
http://img707.imageshack.us/img707/672/40936226.jpg  
http://img651.imageshack.us/img651/4411/23090047.jpg  
http://img213.imageshack.us/img213/425/72316183.jpg





